<svg width="1229" height="300" xmlns="http://www.w3.org/2000/svg" xml:space="preserve" enable-background="new 0 0 1229 300" version="1.1">

 <g>
  <title>Layer 1</title>
  <path id="svg_2" d="m138.53682,1c3.94093,2.56578 7.21362,5.48515 10.92958,7.6402c24.92313,14.45401 49.95563,28.7193 74.92058,43.10146c11.18735,6.44497 22.2776,13.05839 33.45915,19.51359c4.33936,2.50514 6.16242,6.22956 6.16104,11.09878c-0.01309,45.78983 -0.01114,91.57964 -0.0032,137.36947c0.00088,5.07406 -2.06232,8.94069 -6.48572,11.51496c-14.16553,8.24389 -28.30576,16.53138 -42.49089,24.74134c-18.48554,10.69891 -37.00488,21.33941 -55.50932,32.00567c-5.3064,3.05869 -10.64147,6.06955 -15.89702,9.21329c-1.35852,0.81262 -2.46604,2.04489 -3.65493,3.44284c-4.65535,0.3584 -9.3446,0.3584 -14.46554,0.00073c-1.36244,-1.23141 -2.16777,-2.32058 -3.24284,-2.94638c-15.13761,-8.81131 -30.39286,-17.42297 -45.45919,-26.35369c-25.32641,-15.01246 -50.5384,-30.21796 -75.79852,-45.34226c0,-49.68756 0,-99.37512 0.3544,-149.49597c4.72151,-3.58648 8.98771,-6.89372 13.48915,-9.84177c3.31624,-2.17184 6.97883,-3.80694 10.42039,-5.79658c29.81203,-17.23501 59.63431,-34.45267 89.3802,-51.80125c3.99438,-2.32963 7.58062,-5.35906 11.35586,-8.06443c4.02455,0 8.04909,0 12.53682,0m-116.53682,189.5c0.00006,6.83308 0.10116,13.66838 -0.0475,20.49823c-0.06309,2.89871 0.56441,4.69252 3.41195,6.3215c32.07644,18.34996 64.22696,36.58664 95.89464,55.62384c8.20852,4.9346 13.96567,5.20081 22.36809,0.11688c31.75353,-19.21276 64.0685,-37.50254 96.3237,-55.87379c3.42076,-1.94833 4.10727,-4.05466 4.10007,-7.49979c-0.08072,-38.66401 -0.17906,-77.32917 0.09952,-115.99135c0.03787,-5.25868 -2.04645,-7.52864 -6.23697,-9.84705c-14.64357,-8.10164 -29.06955,-16.59736 -43.55991,-24.97498c-19.65298,-11.36242 -39.263,-22.79982 -58.98819,-34.03522c-1.39009,-0.79179 -3.98353,-0.89723 -5.33311,-0.12535c-34.3793,19.66256 -68.64274,39.52764 -103.0059,59.21862c-3.75309,2.15061 -5.17103,4.6331 -5.14143,9.07543c0.21434,32.16317 0.11505,64.32843 0.11504,97.49303z" fill="#113F5E"/>
  <path id="svg_3" d="m1230,245.625c-10.59778,0.69762 -21.20471,1.35512 -31.7854,1.06175c-2.12891,-0.05903 -4.43555,-3.51199 -6.1864,-5.7679c-9.8335,-12.67077 -19.52185,-25.45408 -29.58472,-38.62435c-5.86047,7.57325 -11.56909,14.91622 -17.23987,22.28837c-5.03821,6.54981 -9.95251,13.19756 -15.1184,19.64436c-1.02881,1.28385 -2.93201,2.59824 -4.46045,2.63248c-10.29847,0.23076 -20.6045,0.12024 -32.5719,0.12024c17.85192,-23.57539 34.91931,-46.11456 52.05517,-68.74408c-16.92651,-22.76199 -33.64355,-45.24231 -50.90869,-68.45955c2.15442,-0.36616 3.35217,-0.73971 4.55213,-0.74657c8.82714,-0.05046 17.6593,-0.17785 26.4779,0.0989c1.76282,0.05532 4.02771,1.31508 5.12341,2.74035c10.07788,13.10957 19.94873,26.37824 29.88172,39.59917c0.59338,0.78981 1.20288,1.56752 2.05322,2.67387c10.146,-13.35646 20.08557,-26.09738 29.59228,-39.15352c3.08838,-4.2415 6.10791,-6.53028 11.71082,-6.14149c8.45349,0.58659 16.97778,0.15297 25.94055,0.15297c0.46863,0.75 0.46863,1.5 0.11878,2.60097c-16.78321,22.29469 -33.21656,44.23843 -49.60254,66.11912c0.38257,0.74346 0.54822,1.21582 0.83398,1.59841c13.85877,18.55743 27.68579,37.139 41.63953,55.62492c2.19629,2.90952 4.97143,5.38202 7.47888,8.05661c0,0.74997 0,1.49997 0,2.62497z" fill="#113F5E"/>
  <path id="svg_7" d="m424.24399,108.25617c-8.39716,9.20232 -16.54361,18.15328 -25.10245,27.55737c4.9342,6.85057 9.90161,13.81855 14.94251,20.73298c17.64028,24.19663 35.30981,48.37195 52.95806,72.56278c2.8274,3.87559 5.71399,7.71611 8.34479,11.72285c0.98654,1.50254 1.32254,3.43224 2.30838,6.13594c-11.57989,0 -22.02472,0.0992 -32.46225,-0.13162c-1.23691,-0.02734 -2.73272,-1.64955 -3.60547,-2.88721c-19.26599,-27.32083 -38.45645,-54.69496 -57.68191,-82.0444c-1.0459,-1.48785 -2.27146,-2.84943 -3.70975,-4.63843c-7.32318,7.32817 -14.69278,14.51468 -21.77209,21.9766c-1.14792,1.20996 -1.39423,3.63951 -1.404,5.50873c-0.09814,18.82644 -0.15765,37.6545 0.01462,56.47987c0.03882,4.23912 -1.1185,6.07468 -5.63544,5.84547c-6.14877,-0.31196 -12.33731,-0.31172 -18.48553,0.00542c-4.03522,0.20813 -5.04315,-1.24335 -5.02908,-5.11377c0.12918,-35.4875 0.07574,-70.97566 0.07565,-106.46364c-0.00006,-25.32475 0.10065,-50.65028 -0.09644,-75.9735c-0.03378,-4.34428 1.04505,-5.91982 5.55164,-5.62702c5.97272,0.38806 12.00476,0.35514 17.98264,0.00858c4.32168,-0.25054 5.70886,0.98735 5.66882,5.51053c-0.22266,25.15616 -0.10678,50.31533 -0.10669,75.47347c0,1.29085 0,2.5817 0,5.21602c10.97049,-12.15865 21.13824,-23.42532 31.3031,-34.69461c3.55438,-3.94059 7.07431,-7.9126 10.65698,-11.82724c11.20069,-12.23842 22.33536,-24.54006 33.7403,-36.58553c1.58133,-1.67014 4.51929,-2.80937 6.8652,-2.87336c10.93018,-0.29814 21.87296,-0.13213 34.47116,-0.13213c-17.21533,18.76599 -33.37866,36.38524 -49.79275,54.25585z" fill="#113F5E"/>
  <path id="svg_8" d="m685.9668,110c10.40405,0.00011 20.33471,-0.36635 30.22479,0.10906c8.91852,0.42869 17.64178,2.03435 25.63428,6.71324c7.9505,4.6543 13.14129,11.34539 15.01916,20.08879c1.69135,7.87539 2.72821,15.99397 3.02423,24.04316c0.48364,13.14885 0.46961,26.34081 -0.00812,39.4901c-0.24993,6.87991 -1.37603,13.85042 -3.08325,20.53037c-3.96234,15.50377 -18.65698,23.63627 -31.69647,24.843c-12.38049,1.14575 -24.89471,1.09598 -37.35046,1.10644c-11.62305,0.00978 -23.24634,-0.60182 -34.87006,-0.92158c-6.27686,-0.17269 -9.84021,-3.66838 -9.84326,-10.02908c-0.02826,-58.83323 0.00915,-117.66649 -0.08014,-176.49959c-0.00537,-3.50872 1.10016,-4.65352 4.57404,-4.53734c6.65924,0.22271 13.33667,0.22597 19.9956,-0.00096c3.49878,-0.11923 4.59436,1.0697 4.55847,4.55767c-0.15564,15.16504 0.05457,30.3342 -0.14752,45.49814c-0.05231,3.92058 1.07153,5.47259 5.06336,5.06357c2.80389,-0.28729 5.66101,-0.05516 8.98535,-0.05499m26.1394,112.99112c17.10712,-2.60492 19.14056,-9.99751 19.70899,-21.4989c0.73858,-14.94295 0.81365,-29.98484 -0.0091,-44.91893c-0.7243,-13.14629 -4.12024,-19.15886 -15.24097,-22.15537c-3.62689,-0.97728 -7.52227,-1.37523 -11.28802,-1.33839c-9.27954,0.09076 -18.55786,0.87961 -27.83118,0.79436c-4.474,-0.04114 -5.57568,1.30804 -5.54248,5.6506c0.19617,25.62999 0.09082,51.26225 0.1095,76.89372c0.00122,1.7507 0.18597,3.50125 0.36084,6.58007c13.29626,0 26.05298,0 39.73242,-0.00716z" fill="#113F5E"/>
  <path id="svg_9" d="m869.73834,111.10016c14.61908,3.5875 26.74878,10.4146 34.06928,23.47633c2.73346,4.87723 4.43377,10.75716 4.97815,16.33855c0.82086,8.41727 0.24572,16.97392 0.20508,25.47105c-0.04084,8.53083 -6.19929,14.59757 -14.85425,14.60562c-24.8255,0.02312 -49.65106,0.00823 -74.47657,0.00829c-1.96173,0 -3.92346,0 -5.74353,0c-2.89904,11.33249 3.12769,24.04421 13.75904,27.58081c7.10687,2.36417 14.75293,3.23428 22.2218,4.33984c5.06018,0.74904 10.25885,1.25181 15.3479,0.97818c12.04925,-0.64784 24.0694,-1.83345 36.10351,-2.77311c1.29139,-0.10083 2.59754,-0.01357 4.53895,-0.01357c0,6.47003 0.45739,12.62998 -0.2641,18.64861c-0.23224,1.93739 -3.45392,4.84666 -5.50623,5.0245c-15.99463,1.38616 -32.05402,3.20784 -48.06134,2.94496c-17.24567,-0.28321 -34.42194,-2.903 -48.94763,-13.7126c-9.95068,-7.40501 -16.22144,-17.35324 -16.96106,-29.72879c-0.95105,-15.91343 -1.80274,-31.9487 -0.89441,-47.82838c1.16522,-20.37022 12.17322,-34.16224 30.75897,-42.17278c17.13678,-7.38603 35.26441,-6.60539 53.72644,-3.18751m-54.30975,36.98776c-0.80261,5.34439 -1.77704,10.67426 -2.23126,16.0481c-0.07184,0.85069 2.19561,2.72458 3.39282,2.73433c20.78369,0.16938 41.5694,0.16172 62.35352,0.02342c1.30554,-0.00868 3.38323,-1.12418 3.7788,-2.20777c3.20349,-8.77372 -2.3034,-23.19023 -10.81317,-27.13211c-15.21649,-7.04844 -30.87048,-6.47766 -46.27319,-0.64157c-4.58856,1.73859 -8.18372,5.46715 -10.20752,11.1756z" fill="#113F5E"/>
  <path id="svg_10" d="m519,189.94089c0.19525,9.12492 -0.03949,17.92941 7.00024,24.51532c4.37214,4.09025 9.56318,6.52148 15.67591,6.53625c10.6604,0.02574 21.32348,-0.12893 31.98028,0.06828c4.80365,0.0889 6.41718,-1.90032 6.40174,-6.56062c-0.11005,-33.14708 0.03698,-66.29527 -0.16541,-99.44149c-0.02887,-4.73653 1.1048,-6.50555 6.03314,-6.15809c5.96692,0.42067 11.98871,0.20627 17.98151,0.05727c2.91626,-0.07252 4.14728,0.77506 4.1413,3.92999c-0.07898,41.64237 -0.02527,83.28498 -0.08826,124.9274c-0.008,5.2806 -3.14026,8.09323 -8.4162,8.18588c-18.77869,0.32978 -37.56464,1.12917 -56.33319,0.82946c-11.7627,-0.18784 -23.37061,-2.33915 -33.46432,-9.38327c-12.05964,-8.41611 -18.35932,-20.22771 -18.59623,-34.54967c-0.49307,-29.80788 -0.09854,-59.62982 -0.21588,-89.4454c-0.01392,-3.53393 1.14755,-4.63873 4.59433,-4.51379c6.155,0.22311 12.33478,0.28416 18.48312,-0.0174c3.96875,-0.19465 5.09424,1.13972 5.06916,5.07353c-0.1601,25.15106 -0.08142,50.30366 -0.08124,75.94635z" fill="#113F5E"/>
  <path id="svg_11" d="m935,212c0.00006,-19.98021 -0.53577,-39.47958 0.15955,-58.93495c0.62439,-17.46748 7.66101,-32.0045 24.40148,-39.64557c5.573,-2.54377 12.05207,-3.92746 18.19538,-4.2258c12.9563,-0.62917 25.96515,-0.11159 38.9505,-0.24844c3.1969,-0.03367 4.48968,0.90661 4.34827,4.24038c-0.21863,5.15213 -0.2566,10.33071 0.01001,15.47834c0.19128,3.69331 -1.42157,4.4557 -4.70881,4.39198c-8.65466,-0.16773 -17.31463,-0.06023 -25.97253,-0.0551c-17.37372,0.01028 -27.37939,10.08807 -27.38263,27.58925c-0.00476,25.64062 0.00403,51.28123 -0.00439,76.92186c-0.00263,8.10872 -1.40662,9.4853 -9.56647,9.48759c-4.82843,0.00136 -9.66242,-0.14248 -14.48328,0.04765c-3.09668,0.12215 -4.03082,-1.09585 -3.99328,-4.07884c0.12787,-10.15469 0.04724,-20.31202 0.0462,-30.96835z" fill="#113F5E"/>
  <path id="svg_12" d="m1052.05273,109c5.48865,0.0005 10.49341,0.18613 15.47681,-0.06134c3.52551,-0.17506 4.57898,1.11175 4.53528,4.57123c-0.16455,12.98668 -0.06494,25.9767 -0.06482,38.96547c0.00012,29.14146 0.00659,58.28293 -0.00513,87.42439c-0.00256,6.48499 -0.62671,7.07846 -7.23218,7.09699c-5.49523,0.01539 -11.00451,-0.23775 -16.48107,0.08181c-4.11853,0.24034 -5.40638,-1.0697 -5.37232,-5.27724c0.18921,-23.47816 0.09082,-46.95866 0.0907,-70.43835c0,-17.98445 -0.04871,-35.96908 0.01953,-53.95327c0.03662,-9.67637 -1.28052,-8.25996 9.0332,-8.40969z" fill="#113F5E"/>
  <path id="svg_13" d="m1073,71.00061c-0.00098,4.98415 -0.12756,9.47363 0.04138,13.95198c0.11145,2.95239 -0.8446,4.16375 -3.9563,4.09809c-7.80334,-0.16468 -15.61389,-0.13859 -23.41858,-0.01275c-2.85974,0.04611 -3.73413,-1.10685 -3.70263,-3.83389c0.10571,-9.13439 0.10547,-18.27152 0.00012,-27.40592c-0.03137,-2.72472 0.83826,-3.88147 3.70032,-3.83596c7.97082,0.12674 15.94592,0.11127 23.91748,0.01141c2.63635,-0.03303 3.50244,1.0733 3.44055,3.57249c-0.10669,4.31594 -0.02503,8.63653 -0.02234,13.45455z" fill="#113F5E"/>
  <path id="svg_17" d="m131.9673,244.09311c-8.45196,-4.66072 -16.96755,-9.21036 -25.34152,-14.00722c-13.8551,-7.93658 -27.60664,-16.05372 -41.43039,-24.04539c-3.20479,-1.85274 -6.49397,-3.56726 -9.80008,-5.2348c-3.44,-1.73507 -4.5314,-4.26819 -4.50273,-8.23022c0.20226,-27.95033 0.20493,-55.90356 -0.01329,-83.85365c-0.02796,-3.58213 1.43168,-5.20636 4.11053,-6.73847c24.49275,-14.00811 48.96038,-28.06011 73.4285,-42.11123c0.96799,-0.55588 1.86725,-1.23149 3.17958,-1.33066c0.37717,62.19764 0.37329,123.87464 0.3694,185.55164z" fill="#97D3FF"/>
  <path id="svg_18" d="m156.02624,230.84566c-7.37481,4.40639 -14.74961,8.81277 -22.53021,12.77876c-0.43684,-45.99069 -0.47026,-91.541 -0.49763,-137.09129c-0.00859,-14.29705 -0.06995,-28.59493 0.09753,-42.89003c0.01833,-1.56462 1.39514,-3.11333 2.14188,-4.66943c9.01332,5.18278 18.06392,10.302 27.03142,15.56288c14.21312,8.33828 28.36546,16.78002 42.55654,25.15595c2.48067,1.46414 5.02523,2.82005 7.86301,4.77649c0.28414,14.15587 0.24553,27.7612 -0.10222,41.52173c-17.40054,10.04788 -34.4277,20.05475 -51.63766,29.73671c-3.43315,1.9314 -4.49884,4.09834 -4.41086,7.86278c0.24055,10.29114 0.14801,20.59219 0.05627,30.88815c-0.04861,5.45702 -0.36988,10.91161 -0.56807,16.3673m19.50098,-90.84772c1.5838,-0.87935 3.08048,-2.0098 4.76644,-2.59468c7.39872,-2.56679 9.85661,-7.60298 8.86955,-15.25792c-0.41232,-3.19757 -1.25078,-5.18166 -4.0847,-6.61394c-3.40798,-1.72243 -6.66118,-3.75204 -9.97432,-5.66092c-6.13208,-3.53302 -12.25902,-7.07496 -18.81308,-10.85852c0,17.61061 0,34.4218 0,52.17835c6.62249,-3.83255 12.62588,-7.30681 19.23611,-11.19237z" fill="#11405F"/>
  <path id="svg_19" d="m156.39079,230.85049c-0.16636,-5.46052 0.15491,-10.91511 0.20352,-16.37213c0.09174,-10.29596 0.18428,-20.59701 -0.05627,-30.88815c-0.08798,-3.76444 0.97771,-5.93138 4.41086,-7.86278c17.20996,-9.68196 34.23712,-19.68883 51.88052,-29.67485c0.71518,-0.05757 0.87836,-0.02183 1.04154,0.01392c0.04312,16.26751 0.15916,32.5357 0.00767,48.80141c-0.01394,1.49598 -1.37906,3.57124 -2.71806,4.37185c-14.00758,8.37544 -28.1299,16.55942 -42.23967,24.76334c-4.02315,2.3392 -8.10866,4.57112 -12.53011,6.84739z" fill="#36A9FF"/>
  <path id="svg_20" d="m135.0109,58.68905c-0.51983,1.84072 -1.89664,3.38943 -1.91497,4.95405c-0.16748,14.2951 -0.10612,28.59298 -0.09753,42.89003c0.02737,45.55029 0.06079,91.1006 0.14223,137.12593c-0.31862,0.63369 -0.68761,0.79236 -1.11496,0.69253c-0.05448,-61.93548 -0.0506,-123.61248 -0.06867,-185.74792c0.92767,-0.37204 1.87734,-0.28565 3.0539,0.08538z" fill="#3579A9"/>
  <path id="svg_21" d="m213.92848,145.59668c-0.2207,0.43407 -0.38388,0.39833 -0.78992,0.30072c-0.20425,-13.66721 -0.16564,-27.27254 -0.09971,-41.3389c0.3381,1.06492 0.90965,2.58938 0.91844,4.11708c0.06987,12.15009 0.0329,24.30078 -0.02881,36.9211z" fill="#216CA4"/>
  <path id="svg_22" d="m175.22382,140.20358c-6.30683,3.67992 -12.31022,7.15418 -18.93271,10.98673c0,-17.75655 0,-34.56774 0,-52.17835c6.55406,3.78356 12.681,7.3255 18.81308,10.85852c3.31314,1.90888 6.56634,3.93849 9.97432,5.66092c2.83392,1.43228 3.67238,3.41637 4.0847,6.61394c0.98706,7.65494 -1.47083,12.69113 -8.86955,15.25792c-1.68596,0.58488 -3.18264,1.71533 -5.06984,2.80032z" fill="#36A8FE"/>
 </g>
</svg>