<?xml version="1.0" encoding="utf-8"?>
<!-- Generator: Adobe Illustrator 26.0.2, SVG Export Plug-In . SVG Version: 6.00 Build 0)  -->
<svg version="1.1" id="레이어_1" xmlns="http://www.w3.org/2000/svg" xmlns:xlink="http://www.w3.org/1999/xlink" x="0px"
	 y="0px" viewBox="0 0 1229 300" style="enable-background:new 0 0 1229 300;" xml:space="preserve">
<style type="text/css">
	.st0{fill:#FFFFFF;}
	.st1{fill:#97D3FF;}
	.st2{fill:#36A9FF;}
</style>
<g>
	<path id="svg_2" class="st0" d="M138.5,1c3.9,2.6,7.2,5.5,10.9,7.6c24.9,14.5,50,28.7,74.9,43.1c11.2,6.4,22.3,13.1,33.5,19.5
		c4.3,2.5,6.2,6.2,6.2,11.1c0,45.8,0,91.6,0,137.4c0,5.1-2.1,8.9-6.5,11.5c-14.2,8.2-28.3,16.5-42.5,24.7
		c-18.5,10.7-37,21.3-55.5,32c-5.3,3.1-10.6,6.1-15.9,9.2c-1.4,0.8-2.5,2-3.7,3.4c-4.7,0.4-9.3,0.4-14.5,0c-1.4-1.2-2.2-2.3-3.2-2.9
		c-15.1-8.8-30.4-17.4-45.5-26.4C51.5,256.3,26.3,241.1,1,226c0-49.7,0-99.4,0.4-149.5c4.7-3.6,9-6.9,13.5-9.8
		c3.3-2.2,7-3.8,10.4-5.8c29.8-17.2,59.6-34.5,89.4-51.8c4-2.3,7.6-5.4,11.4-8.1C130,1,134,1,138.5,1 M22,190.5
		c0,6.8,0.1,13.7,0,20.5c-0.1,2.9,0.6,4.7,3.4,6.3c32.1,18.3,64.2,36.6,95.9,55.6c8.2,4.9,14,5.2,22.4,0.1
		c31.8-19.2,64.1-37.5,96.3-55.9c3.4-1.9,4.1-4.1,4.1-7.5c-0.1-38.7-0.2-77.3,0.1-116c0-5.3-2-7.5-6.2-9.8
		c-14.6-8.1-29.1-16.6-43.6-25c-19.7-11.4-39.3-22.8-59-34c-1.4-0.8-4-0.9-5.3-0.1C95.7,44.4,61.4,64.2,27,83.9
		c-3.8,2.2-5.2,4.6-5.1,9.1C22.1,125.2,22,157.3,22,190.5z"/>
	<path id="svg_3" class="st0" d="M1230,245.6c-10.6,0.7-21.2,1.4-31.8,1.1c-2.1-0.1-4.4-3.5-6.2-5.8c-9.8-12.7-19.5-25.5-29.6-38.6
		c-5.9,7.6-11.6,14.9-17.2,22.3c-5,6.5-10,13.2-15.1,19.6c-1,1.3-2.9,2.6-4.5,2.6c-10.3,0.2-20.6,0.1-32.6,0.1
		c17.9-23.6,34.9-46.1,52.1-68.7c-16.9-22.8-33.6-45.2-50.9-68.5c2.2-0.4,3.4-0.7,4.6-0.7c8.8-0.1,17.7-0.2,26.5,0.1
		c1.8,0.1,4,1.3,5.1,2.7c10.1,13.1,19.9,26.4,29.9,39.6c0.6,0.8,1.2,1.6,2.1,2.7c10.1-13.4,20.1-26.1,29.6-39.2
		c3.1-4.2,6.1-6.5,11.7-6.1c8.5,0.6,17,0.2,25.9,0.2c0.5,0.8,0.5,1.5,0.1,2.6c-16.8,22.3-33.2,44.2-49.6,66.1
		c0.4,0.7,0.5,1.2,0.8,1.6c13.9,18.6,27.7,37.1,41.6,55.6c2.2,2.9,5,5.4,7.5,8.1C1230,243.8,1230,244.5,1230,245.6z"/>
	<path id="svg_7" class="st0" d="M424.2,108.3c-8.4,9.2-16.5,18.2-25.1,27.6c4.9,6.9,9.9,13.8,14.9,20.7
		c17.6,24.2,35.3,48.4,53,72.6c2.8,3.9,5.7,7.7,8.3,11.7c1,1.5,1.3,3.4,2.3,6.1c-11.6,0-22,0.1-32.5-0.1c-1.2,0-2.7-1.6-3.6-2.9
		c-19.3-27.3-38.5-54.7-57.7-82c-1-1.5-2.3-2.8-3.7-4.6c-7.3,7.3-14.7,14.5-21.8,22c-1.1,1.2-1.4,3.6-1.4,5.5
		c-0.1,18.8-0.2,37.7,0,56.5c0,4.2-1.1,6.1-5.6,5.8c-6.1-0.3-12.3-0.3-18.5,0c-4,0.2-5-1.2-5-5.1c0.1-35.5,0.1-71,0.1-106.5
		c0-25.3,0.1-50.7-0.1-76c0-4.3,1-5.9,5.6-5.6c6,0.4,12,0.4,18,0c4.3-0.3,5.7,1,5.7,5.5c-0.2,25.2-0.1,50.3-0.1,75.5
		c0,1.3,0,2.6,0,5.2c11-12.2,21.1-23.4,31.3-34.7c3.6-3.9,7.1-7.9,10.7-11.8c11.2-12.2,22.3-24.5,33.7-36.6c1.6-1.7,4.5-2.8,6.9-2.9
		c10.9-0.3,21.9-0.1,34.5-0.1C456.8,72.8,440.7,90.4,424.2,108.3L424.2,108.3z"/>
	<path id="svg_8" class="st0" d="M686,110c10.4,0,20.3-0.4,30.2,0.1c8.9,0.4,17.6,2,25.6,6.7c8,4.7,13.1,11.3,15,20.1
		c1.7,7.9,2.7,16,3,24c0.5,13.1,0.5,26.3,0,39.5c-0.2,6.9-1.4,13.9-3.1,20.5c-4,15.5-18.7,23.6-31.7,24.8
		c-12.4,1.1-24.9,1.1-37.4,1.1c-11.6,0-23.2-0.6-34.9-0.9c-6.3-0.2-9.8-3.7-9.8-10c0-58.8,0-117.7-0.1-176.5c0-3.5,1.1-4.7,4.6-4.5
		c6.7,0.2,13.3,0.2,20,0c3.5-0.1,4.6,1.1,4.6,4.6c-0.2,15.2,0.1,30.3-0.1,45.5c-0.1,3.9,1.1,5.5,5.1,5.1
		C679.8,109.8,682.6,110,686,110 M712.1,223c17.1-2.6,19.1-10,19.7-21.5c0.7-14.9,0.8-30,0-44.9c-0.7-13.1-4.1-19.2-15.2-22.2
		c-3.6-1-7.5-1.4-11.3-1.3c-9.3,0.1-18.6,0.9-27.8,0.8c-4.5,0-5.6,1.3-5.5,5.7c0.2,25.6,0.1,51.3,0.1,76.9c0,1.8,0.2,3.5,0.4,6.6
		C685.7,223,698.4,223,712.1,223z"/>
	<path id="svg_9" class="st0" d="M869.7,111.1c14.6,3.6,26.7,10.4,34.1,23.5c2.7,4.9,4.4,10.8,5,16.3c0.8,8.4,0.2,17,0.2,25.5
		c0,8.5-6.2,14.6-14.9,14.6c-24.8,0-49.7,0-74.5,0c-2,0-3.9,0-5.7,0c-2.9,11.3,3.1,24,13.8,27.6c7.1,2.4,14.8,3.2,22.2,4.3
		c5.1,0.7,10.3,1.3,15.3,1c12-0.6,24.1-1.8,36.1-2.8c1.3-0.1,2.6,0,4.5,0c0,6.5,0.5,12.6-0.3,18.6c-0.2,1.9-3.5,4.8-5.5,5
		c-16,1.4-32.1,3.2-48.1,2.9c-17.2-0.3-34.4-2.9-48.9-13.7c-10-7.4-16.2-17.4-17-29.7c-1-15.9-1.8-31.9-0.9-47.8
		c1.2-20.4,12.2-34.2,30.8-42.2C833.1,106.9,851.3,107.7,869.7,111.1 M815.4,148.1c-0.8,5.3-1.8,10.7-2.2,16
		c-0.1,0.9,2.2,2.7,3.4,2.7c20.8,0.2,41.6,0.2,62.4,0c1.3,0,3.4-1.1,3.8-2.2c3.2-8.8-2.3-23.2-10.8-27.1c-15.2-7-30.9-6.5-46.3-0.6
		C821,138.7,817.5,142.4,815.4,148.1z"/>
	<path id="svg_10" class="st0" d="M519,189.9c0.2,9.1,0,17.9,7,24.5c4.4,4.1,9.6,6.5,15.7,6.5c10.7,0,21.3-0.1,32,0.1
		c4.8,0.1,6.4-1.9,6.4-6.6c-0.1-33.1,0-66.3-0.2-99.4c0-4.7,1.1-6.5,6-6.2c6,0.4,12,0.2,18,0.1c2.9-0.1,4.1,0.8,4.1,3.9
		c-0.1,41.6,0,83.3-0.1,124.9c0,5.3-3.1,8.1-8.4,8.2c-18.8,0.3-37.6,1.1-56.3,0.8c-11.8-0.2-23.4-2.3-33.5-9.4
		c-12.1-8.4-18.4-20.2-18.6-34.5c-0.5-29.8-0.1-59.6-0.2-89.4c0-3.5,1.1-4.6,4.6-4.5c6.2,0.2,12.3,0.3,18.5,0c4-0.2,5.1,1.1,5.1,5.1
		C518.9,139.1,519,164.3,519,189.9z"/>
	<path id="svg_11" class="st0" d="M935,212c0-20-0.5-39.5,0.2-58.9c0.6-17.5,7.7-32,24.4-39.6c5.6-2.5,12.1-3.9,18.2-4.2
		c13-0.6,26-0.1,39-0.2c3.2,0,4.5,0.9,4.3,4.2c-0.2,5.2-0.3,10.3,0,15.5c0.2,3.7-1.4,4.5-4.7,4.4c-8.7-0.2-17.3-0.1-26-0.1
		c-17.4,0-27.4,10.1-27.4,27.6c0,25.6,0,51.3,0,76.9c0,8.1-1.4,9.5-9.6,9.5c-4.8,0-9.7-0.1-14.5,0c-3.1,0.1-4-1.1-4-4.1
		C935.1,232.8,935,222.7,935,212z"/>
	<path id="svg_12" class="st0" d="M1052.1,109c5.5,0,10.5,0.2,15.5-0.1c3.5-0.2,4.6,1.1,4.5,4.6c-0.2,13-0.1,26-0.1,39
		c0,29.1,0,58.3,0,87.4c0,6.5-0.6,7.1-7.2,7.1c-5.5,0-11-0.2-16.5,0.1c-4.1,0.2-5.4-1.1-5.4-5.3c0.2-23.5,0.1-47,0.1-70.4
		c0-18,0-36,0-54C1043.1,107.7,1041.7,109.1,1052.1,109L1052.1,109z"/>
	<path id="svg_13" class="st0" d="M1073,71c0,5-0.1,9.5,0,14c0.1,3-0.8,4.2-4,4.1c-7.8-0.2-15.6-0.1-23.4,0c-2.9,0-3.7-1.1-3.7-3.8
		c0.1-9.1,0.1-18.3,0-27.4c0-2.7,0.8-3.9,3.7-3.8c8,0.1,15.9,0.1,23.9,0c2.6,0,3.5,1.1,3.4,3.6C1072.9,61.9,1073,66.2,1073,71z"/>
	<path id="svg_17" class="st1" d="M132,244.1c-8.5-4.7-17-9.2-25.3-14C92.8,222.1,79,214,65.2,206c-3.2-1.9-6.5-3.6-9.8-5.2
		c-3.4-1.7-4.5-4.3-4.5-8.2c0.2-28,0.2-55.9,0-83.9c0-3.6,1.4-5.2,4.1-6.7c24.5-14,49-28.1,73.4-42.1c1-0.6,1.9-1.2,3.2-1.3
		C132,120.7,132,182.4,132,244.1L132,244.1z"/>
	<path id="svg_18" class="st0" d="M156,230.8c-7.4,4.4-14.7,8.8-22.5,12.8c-0.4-46-0.5-91.5-0.5-137.1c0-14.3-0.1-28.6,0.1-42.9
		c0-1.6,1.4-3.1,2.1-4.7c9,5.2,18.1,10.3,27,15.6c14.2,8.3,28.4,16.8,42.6,25.2c2.5,1.5,5,2.8,7.9,4.8c0.3,14.2,0.2,27.8-0.1,41.5
		c-17.4,10-34.4,20.1-51.6,29.7c-3.4,1.9-4.5,4.1-4.4,7.9c0.2,10.3,0.1,20.6,0.1,30.9C156.5,219.9,156.2,225.4,156,230.8 M175.5,140
		c1.6-0.9,3.1-2,4.8-2.6c7.4-2.6,9.9-7.6,8.9-15.3c-0.4-3.2-1.3-5.2-4.1-6.6c-3.4-1.7-6.7-3.8-10-5.7c-6.1-3.5-12.3-7.1-18.8-10.9
		c0,17.6,0,34.4,0,52.2C162.9,147.4,168.9,143.9,175.5,140z"/>
	<path id="svg_19" class="st2" d="M156.4,230.9c-0.2-5.5,0.2-10.9,0.2-16.4c0.1-10.3,0.2-20.6-0.1-30.9c-0.1-3.8,1-5.9,4.4-7.9
		c17.2-9.7,34.2-19.7,51.9-29.7c0.7-0.1,0.9,0,1,0c0,16.3,0.2,32.5,0,48.8c0,1.5-1.4,3.6-2.7,4.4c-14,8.4-28.1,16.6-42.2,24.8
		C164.9,226.3,160.8,228.6,156.4,230.9z"/>
	<path id="svg_20" class="st0" d="M135,58.7c-0.5,1.8-1.9,3.4-1.9,5c-0.2,14.3-0.1,28.6-0.1,42.9c0,45.6,0.1,91.1,0.1,137.1
		c-0.3,0.6-0.7,0.8-1.1,0.7C132,182.4,132,120.7,132,58.6C132.9,58.2,133.8,58.3,135,58.7z"/>
	<path id="svg_21" class="st0" d="M213.9,145.6c-0.2,0.4-0.4,0.4-0.8,0.3c-0.2-13.7-0.2-27.3-0.1-41.3c0.3,1.1,0.9,2.6,0.9,4.1
		C214,120.8,214,133,213.9,145.6z"/>
	<path id="svg_22" class="st2" d="M175.2,140.2c-6.3,3.7-12.3,7.2-18.9,11c0-17.8,0-34.6,0-52.2c6.6,3.8,12.7,7.3,18.8,10.9
		c3.3,1.9,6.6,3.9,10,5.7c2.8,1.4,3.7,3.4,4.1,6.6c1,7.7-1.5,12.7-8.9,15.3C178.6,138,177.1,139.1,175.2,140.2z"/>
</g>
</svg>
