<?xml version="1.0" standalone="no"?>
<!DOCTYPE svg PUBLIC "-//W3C//DTD SVG 20010904//EN"
 "http://www.w3.org/TR/2001/REC-SVG-20010904/DTD/svg10.dtd">
<svg version="1.0" xmlns="http://www.w3.org/2000/svg"
 width="1229.000000pt" height="300.000000pt" viewBox="0 0 1229.000000 300.000000"
 preserveAspectRatio="xMidYMid meet">

<g transform="translate(0.000000,300.000000) scale(0.100000,-0.100000)"
fill="#000000" stroke="none">
<path d="M1084 2881 c-1040 -597 -1038 -596 -1062 -642 l-22 -44 2 -712 c3
-703 3 -712 24 -740 24 -33 1221 -729 1270 -739 18 -3 45 0 65 9 53 22 1201
687 1227 710 12 11 27 37 33 56 6 24 9 276 7 741 -3 705 -3 705 -25 735 -14
20 -140 99 -394 245 -885 510 -849 490 -894 490 -34 0 -73 -18 -231 -109z
m800 -422 l545 -314 1 -645 0 -646 -552 -319 c-304 -175 -557 -318 -563 -318
-5 0 -259 143 -563 319 l-552 319 2 645 3 645 550 318 c318 183 557 316 567
313 10 -2 262 -145 562 -317z"/>
<path d="M1310 1501 c0 -512 3 -931 8 -931 4 0 59 31 122 68 l115 68 3 260 2
260 278 160 277 160 3 210 2 210 -397 229 c-219 125 -401 230 -405 232 -5 2
-8 -415 -8 -926z m565 258 l0 -72 -120 -69 c-66 -38 -139 -81 -162 -94 l-43
-25 0 260 0 260 163 -94 162 -94 0 -72z"/>
<path d="M3275 2458 c-3 -7 -4 -440 -3 -963 l3 -950 126 -3 c106 -2 130 0 143
13 14 14 16 57 16 338 l0 322 118 118 117 117 315 -448 315 -447 168 -3 c130
-2 167 0 167 10 0 7 -176 253 -390 546 -215 294 -390 538 -390 543 0 9 555
622 689 762 l45 47 -185 0 -186 0 -391 -430 -392 -430 -2 432 -3 433 -138 3
c-104 2 -139 -1 -142 -10z"/>
<path d="M10415 2457 c-3 -7 -4 -85 -3 -172 l3 -160 150 0 150 0 0 170 0 170
-148 3 c-115 2 -149 0 -152 -11z"/>
<path d="M6420 1540 l0 -920 29 -32 29 -33 364 -3 c302 -3 376 -1 431 12 165
38 254 126 292 288 21 88 21 643 1 739 -35 164 -123 253 -293 297 -56 14 -114
17 -321 17 l-252 0 0 278 0 277 -140 0 -140 0 0 -920z m749 128 c56 -14 112
-69 129 -124 8 -29 12 -130 12 -330 0 -259 -2 -293 -19 -329 -22 -48 -43 -68
-96 -92 -35 -15 -69 -17 -259 -14 -121 1 -223 4 -228 7 -7 4 -12 881 -5 886 6
4 310 13 362 10 33 -2 80 -8 104 -14z"/>
<path d="M4904 1906 c-3 -8 -4 -232 -2 -498 4 -471 4 -485 26 -546 13 -35 33
-80 46 -100 36 -56 121 -131 179 -156 112 -50 171 -56 526 -56 l330 0 28 24
28 24 3 656 2 656 -140 0 -140 0 0 -553 0 -554 -97 -6 c-167 -11 -295 -8 -352
8 -66 20 -134 84 -150 140 -7 26 -11 199 -11 508 l0 467 -135 0 c-109 0 -137
-3 -141 -14z"/>
<path d="M8250 1894 c-161 -42 -288 -142 -356 -280 l-39 -78 -3 -265 c-2 -175
0 -287 8 -326 37 -190 169 -313 405 -376 146 -39 659 -36 745 4 24 12 25 16
28 115 l3 104 -93 -9 c-163 -14 -545 -9 -611 9 -149 41 -217 123 -217 259 l0
59 435 0 434 0 36 31 c50 44 58 82 53 260 -3 149 -4 156 -35 222 -62 131 -186
226 -351 268 -95 24 -355 26 -442 3z m408 -229 c60 -18 120 -68 143 -119 25
-55 27 -201 3 -210 -9 -3 -167 -6 -351 -6 l-335 0 4 93 c6 127 37 180 132 229
75 38 295 45 404 13z"/>
<path d="M9650 1894 c-30 -8 -73 -25 -95 -39 -58 -34 -132 -117 -162 -181 -48
-105 -53 -178 -51 -674 l3 -455 111 -3 c98 -2 114 0 135 17 l24 19 5 469 c5
460 5 469 27 510 27 51 82 96 132 112 23 6 114 11 225 11 l186 0 0 115 0 115
-242 -1 c-181 0 -257 -4 -298 -15z"/>
<path d="M10430 1225 l0 -685 118 0 c86 0 123 4 138 14 18 14 19 34 22 685 l2
671 -140 0 -140 0 0 -685z"/>
<path d="M10950 1904 c0 -3 109 -153 243 -332 134 -180 246 -332 249 -337 4
-6 -110 -163 -252 -350 l-259 -340 155 -3 c85 -1 162 2 172 7 10 5 92 106 182
225 91 118 170 214 175 212 6 -1 87 -102 180 -224 l170 -222 150 2 c143 3 150
4 149 23 0 11 -103 157 -230 325 -126 167 -234 312 -241 321 -10 14 25 66 230
345 134 181 246 335 250 342 7 9 -27 12 -155 12 l-163 0 -170 -225 c-93 -124
-170 -225 -171 -225 -1 0 -78 101 -170 225 l-169 225 -162 0 c-90 0 -163 -3
-163 -6z"/>
</g>
</svg>
